# xmcd
#
# Track frame offsets: 
#        183
#        10043
#        20843
#        32693
#        44193
#        55793
#        70068
#        82118
#        93918
#        105068
#        115618
#        129068
#        141693
#        155543
#        168218
#        181343
#        191468
#        203318
#        215818
#        230140
#        244393
#        254618
#        266168
#        280118
#
# Disc length: 3958 seconds
#
# Revision: 1
# Processed by: cddbd v1.5.2PL0 Copyright (c) Steve Scherf et al.
# Submitted via: ExactAudioCopy v1.0b3
#
DISCID=550f7418
DTITLE=Various Artist - Masters 1 Of The Blues
DYEAR=1990
DGENRE=Blues
TTITLE0=Howlin' Wolf - Down In The Bottom
TTITLE1=Howlin' Wolf - Who's Been Talking
TTITLE2=Muddy Waters - The Same Thing
TTITLE3=Muddy Waters - Rollin' and Tumblin (Part 2)
TTITLE4=Sonny Boy Williamson - Bring It On Home
TTITLE5=Sonny Boy Williamson - Help Me
TTITLE6=Buddy Guy - Buddy's Boogie
TTITLE7=Buddy Guy - My Love Is Real
TTITLE8=B. B. King - Tickle Britches
TTITLE9=B. B. King - Recession Blues
TTITLE10=John Lee Hooker - One Bourbon, One Scotch, One Bear
TTITLE11=John Lee Hooker - Leave My Wife Alone
TTITLE12=Albert King - Howlin' For My Darling
TTITLE13=Albert King - California
TTITLE14=Otis Rush - All Your Love
TTITLE15=Otis Rush - I Can't Stop
TTITLE16=Little Walter - My Babe
TTITLE17=Little Walter - Tell Me Mama
TTITLE18=Bo Diddley - Say Boss Man
TTITLE19=Bo Diddley - You Can't Judge A Book By It's Cover
TTITLE20=Chuck Berry - I Got To Find My Baby
TTITLE21=Chuck Berry - Oh Yeah
TTITLE22=Muddy Waters - Can't Loose What You Ain't Never Had
TTITLE23=Howlin' Wolf - Rockin' Daddy
EXTD=
EXTT0=
EXTT1=
EXTT2=
EXTT3=
EXTT4=
EXTT5=
EXTT6=
EXTT7=
EXTT8=
EXTT9=
EXTT10=
EXTT11=
EXTT12=
EXTT13=
EXTT14=
EXTT15=
EXTT16=
EXTT17=
EXTT18=
EXTT19=
EXTT20=
EXTT21=
EXTT22=
EXTT23=
PLAYORDER=
